# This file uses centimeters as units for non-parametric coordinates.

mtllib asd.mtl
g default
v -0.082082 -0.063734 5.573472
v 0.816703 -0.063734 5.573472
v -0.082082 0.063734 5.573472
v 0.816703 0.063734 5.573472
v -0.082082 0.063734 1.821167
v 0.816703 0.063734 1.821167
v -0.082082 -0.063734 1.821167
v 0.816703 -0.063734 1.821167
v -0.082082 0.063734 5.415184
v 0.816703 0.063734 5.415184
v 0.816703 -0.063734 5.415185
v -0.082082 -0.063734 5.415185
v 0.750589 -0.063734 5.573472
v 0.750589 -0.063734 5.415185
v 0.750589 -0.063734 1.821167
v 0.750589 0.063734 1.821167
v 0.750589 0.063734 5.415184
v 0.750589 0.063734 5.573472
v 0.001963 -0.063734 5.573472
v 0.001963 -0.063734 5.415185
v 0.001963 -0.063734 1.821167
v 0.001963 0.063734 1.821167
v 0.001963 0.063734 5.415184
v 0.001963 0.063734 5.573472
v -0.082082 -0.063734 1.944620
v 0.001963 -0.063734 1.944621
v 0.750589 -0.063734 1.944621
v 0.816703 -0.063734 1.944620
v 0.816703 0.063734 1.944621
v 0.750589 0.063734 1.944619
v 0.001963 0.063734 1.944619
v -0.082082 0.063734 1.944621
v 0.750589 -0.518975 5.573472
v 0.750589 -0.518975 5.415185
v 0.816703 -0.518975 5.415185
v 0.816703 -0.518975 5.573472
v 0.001963 -0.518975 5.415185
v -0.082082 -0.518975 5.415185
v 0.001963 -0.518975 5.573472
v -0.082082 -0.518975 5.573472
v -0.082082 -0.518975 1.821167
v 0.001963 -0.518975 1.821167
v 0.001963 -0.518975 1.944621
v -0.082082 -0.518975 1.944620
v 0.750589 -0.518975 1.944621
v 0.816703 -0.518975 1.944620
v 0.750589 -0.518975 1.821167
v 0.816703 -0.518975 1.821167
vt 0.268396 0.142263
vt 0.341959 0.138743
vt 0.174804 0.323314
vt 0.320805 0.359562
vt 0.132204 0.540747
vt 0.250578 0.572690
vt 0.064793 0.755445
vt 0.225971 0.794318
vt 0.053783 0.978685
vt 0.155487 0.996094
vt 0.548390 0.115981
vt 0.555632 0.331367
vt 0.141427 0.003906
vt 0.003906 0.137071
vt 0.163508 0.317517
vt 0.179274 0.335181
vt 0.311612 0.368254
vt 0.332537 0.358359
vt 0.165624 0.991993
vt 0.348819 0.137510
vt 0.265342 0.136201
vt 0.048499 0.973877
vt 0.335539 0.139942
vt 0.150212 0.995533
vt 0.157619 0.988857
vt 0.188313 0.782485
vt 0.241732 0.571013
vt 0.302839 0.365681
vt 0.309642 0.358586
vt 0.271631 0.149662
vt 0.060662 0.981110
vt 0.058657 0.976402
vt 0.084442 0.762538
vt 0.143073 0.544222
vt 0.190671 0.337912
vt 0.189618 0.327947
vt 0.146613 0.009069
vt 0.052994 0.758036
vt 0.096022 0.770296
vt 0.191291 0.791073
vt 0.219541 0.799160
vt 0.541067 0.115607
vt 0.252981 0.566867
vt 0.548702 0.333634
vt 0.244354 0.564306
vt 0.145256 0.536982
vt 0.006621 0.143842
vt 0.134096 0.534388
vt 0.156179 0.991521
vt 0.160131 0.989861
vt 0.159818 0.990746
vt 0.154823 0.995725
vt 0.054932 0.976111
vt 0.058934 0.977449
vt 0.056325 0.978956
vt 0.051210 0.975792
vt 0.068817 0.757407
vt 0.078862 0.762493
vt 0.071565 0.761997
vt 0.061718 0.756272
vt 0.205374 0.794982
vt 0.200836 0.790501
vt 0.207067 0.789888
vt 0.211514 0.794674
vn 0.000000 0.000000 1.000000
vn 0.000000 0.000000 1.000000
vn 0.000000 0.000000 1.000000
vn 0.000000 0.000000 1.000000
vn 0.000000 1.000000 0.000000
vn 0.000000 1.000000 0.000000
vn 0.000000 1.000000 0.000000
vn 0.000000 1.000000 0.000000
vn 0.000000 0.000000 -1.000000
vn 0.000000 0.000000 -1.000000
vn 0.000000 0.000000 -1.000000
vn 0.000000 0.000000 -1.000000
vn 0.000000 -1.000000 0.000000
vn 0.000000 -1.000000 0.000000
vn 0.000000 -1.000000 0.000000
vn 0.000000 -1.000000 0.000000
vn 1.000000 0.000000 0.000000
vn 1.000000 0.000000 0.000000
vn 1.000000 0.000000 0.000000
vn 1.000000 0.000000 0.000000
vn -1.000000 0.000000 0.000000
vn -1.000000 0.000000 0.000000
vn -1.000000 0.000000 0.000000
vn -1.000000 0.000000 0.000000
vn 0.000000 1.000000 0.000000
vn 0.000000 1.000000 0.000000
vn 1.000000 0.000000 0.000000
vn 1.000000 0.000000 0.000000
vn 0.000000 -1.000000 0.000000
vn 0.000000 -1.000000 0.000000
vn 0.000000 -1.000000 0.000000
vn 0.000000 -1.000000 0.000000
vn -1.000000 0.000000 0.000000
vn -1.000000 0.000000 0.000000
vn 0.000000 -1.000000 0.000000
vn 0.000000 -1.000000 0.000000
vn 0.000000 -1.000000 0.000000
vn 0.000000 -1.000000 0.000000
vn 0.000000 0.000000 -1.000000
vn 0.000000 0.000000 -1.000000
vn 0.000000 1.000000 0.000000
vn 0.000000 1.000000 0.000000
vn 0.000000 1.000000 0.000000
vn 0.000000 0.000000 1.000000
vn 0.000000 0.000000 1.000000
vn 0.000000 -1.000000 0.000000
vn 0.000000 -1.000000 0.000000
vn 0.000000 -1.000000 0.000000
vn 0.000000 -1.000000 0.000000
vn 0.000000 -1.000000 0.000000
vn 0.000000 -1.000000 0.000000
vn 0.000000 0.000000 -1.000000
vn 0.000000 0.000000 -1.000000
vn 0.000000 1.000000 0.000000
vn 0.000000 1.000000 0.000000
vn 0.000000 1.000000 0.000000
vn 0.000000 0.000000 1.000000
vn 0.000000 0.000000 1.000000
vn 0.000000 -1.000000 0.000000
vn 0.000000 -1.000000 0.000000
vn 0.000000 -1.000000 0.000000
vn 0.000000 -1.000000 0.000000
vn 0.000000 -1.000000 0.000000
vn 0.000000 -1.000000 0.000000
vn 0.000000 -1.000000 0.000000
vn 0.000000 -1.000000 0.000000
vn 0.000000 -1.000000 0.000000
vn 0.000000 -1.000000 0.000000
vn 1.000000 0.000000 0.000000
vn 1.000000 0.000000 0.000000
vn 0.000000 1.000000 0.000000
vn 0.000000 1.000000 0.000000
vn 0.000000 1.000000 0.000000
vn 0.000000 1.000000 0.000000
vn -1.000000 0.000000 0.000000
vn -1.000000 0.000000 0.000000
vn -1.000000 0.000000 -0.000002
vn -1.000000 0.000000 -0.000002
vn -1.000000 0.000000 -0.000002
vn -1.000000 0.000000 -0.000002
vn 0.000000 0.000000 -1.000000
vn 0.000000 0.000000 -1.000000
vn 0.000000 0.000000 -1.000000
vn 0.000000 0.000000 -1.000000
vn 1.000000 0.000000 0.000000
vn 1.000000 0.000000 0.000000
vn 1.000000 0.000000 0.000000
vn 1.000000 0.000000 0.000000
vn 0.000000 0.000000 1.000000
vn 0.000000 0.000000 1.000000
vn 0.000000 0.000000 1.000000
vn 0.000000 0.000000 1.000000
vn 0.000000 0.000000 -1.000000
vn 0.000000 0.000000 -1.000000
vn 0.000000 0.000000 -1.000000
vn 0.000000 0.000000 -1.000000
vn 1.000000 0.000000 0.000000
vn 1.000000 0.000000 0.000000
vn 1.000000 0.000000 0.000000
vn 1.000000 0.000000 0.000000
vn 0.000000 0.000000 1.000000
vn 0.000000 0.000000 1.000000
vn 0.000000 0.000000 1.000000
vn 0.000000 0.000000 1.000000
vn -1.000000 0.000000 0.000000
vn -1.000000 0.000000 0.000000
vn -1.000000 0.000000 0.000000
vn -1.000000 0.000000 0.000000
vn 0.000000 0.000000 -1.000000
vn 0.000000 0.000000 -1.000000
vn 0.000000 0.000000 -1.000000
vn 0.000000 0.000000 -1.000000
vn 1.000000 0.000000 -0.000000
vn 1.000000 0.000000 -0.000000
vn 1.000000 0.000000 -0.000000
vn 1.000000 0.000000 -0.000000
vn -0.000018 0.000000 1.000000
vn -0.000018 0.000000 1.000000
vn -0.000018 0.000000 1.000000
vn -0.000018 0.000000 1.000000
vn -1.000000 0.000000 0.000000
vn -1.000000 0.000000 0.000000
vn -1.000000 0.000000 0.000000
vn -1.000000 0.000000 0.000000
vn 0.000023 0.000000 1.000000
vn 0.000023 0.000000 1.000000
vn 0.000023 0.000000 1.000000
vn 0.000023 0.000000 1.000000
vn -1.000000 0.000000 0.000000
vn -1.000000 0.000000 0.000000
vn -1.000000 0.000000 0.000000
vn -1.000000 0.000000 0.000000
vn 0.000000 0.000000 -1.000000
vn 0.000000 0.000000 -1.000000
vn 0.000000 0.000000 -1.000000
vn 0.000000 0.000000 -1.000000
vn 1.000000 0.000000 0.000000
vn 1.000000 0.000000 0.000000
vn 1.000000 0.000000 0.000000
vn 1.000000 0.000000 0.000000
s 1
g pCube2
usemtl initialShadingGroup
f 18/29/1 13/23/2 2/2/3 4/4/4
s 2
f 29/43/5 30/45/6 17/28/7 10/17/8
s 3
f 15/26/9 16/27/10 6/6/11 8/8/12
s 4
f 14/25/13 27/40/14 28/41/15 11/19/16
s 5
f 10/18/17 11/20/18 28/42/19 29/44/20
s 6
f 32/47/21 25/37/22 12/21/23 9/15/24
s 2
f 17/28/7 18/29/25 4/4/26 10/17/8
s 5
f 2/2/27 11/20/18 10/18/17 4/4/28
s off
f 33/49/29 34/50/30 35/51/31 36/52/32
s 6
f 9/15/24 12/21/23 1/1/33 3/3/34
s 4
f 19/31/35 20/32/36 14/25/13 13/24/37
f 20/32/36 26/39/38 27/40/14 14/25/13
s 3
f 21/33/39 22/34/40 16/27/10 15/26/9
s 2
f 30/45/6 31/46/41 23/35/42 17/28/7
f 23/35/42 24/36/43 18/29/25 17/28/7
s 1
f 24/36/44 19/30/45 13/23/2 18/29/1
s off
f 38/53/46 37/54/47 39/55/48 40/56/49
s 4
f 25/38/50 26/39/38 20/32/36 12/22/51
s 3
f 5/5/52 22/34/40 21/33/39 7/7/53
s 2
f 9/16/54 23/35/42 31/46/41 32/48/55
f 3/3/56 24/36/43 23/35/42 9/16/54
s 1
f 1/1/57 19/30/45 24/36/44 3/3/58
s off
f 41/57/59 42/58/60 43/59/61 44/60/62
s 4
f 27/40/14 26/39/38 21/33/63 15/26/64
s off
f 46/61/65 45/62/66 47/63/67 48/64/68
s 5
f 29/44/20 28/42/19 8/11/69 6/12/70
s 2
f 16/27/71 30/45/6 29/43/5 6/6/72
f 22/34/73 31/46/41 30/45/6 16/27/71
f 32/48/55 31/46/41 22/34/73 5/5/74
s 6
f 7/13/75 25/37/22 32/47/21 5/14/76
s off
f 13/24/77 14/25/78 34/50/79 33/49/80
f 14/25/81 11/19/82 35/51/83 34/50/84
f 11/19/85 2/10/86 36/52/87 35/51/88
f 2/10/89 13/24/90 33/49/91 36/52/92
f 12/22/93 20/32/94 37/54/95 38/53/96
f 20/32/97 19/31/98 39/55/99 37/54/100
f 19/31/101 1/9/102 40/56/103 39/55/104
f 1/9/105 12/22/106 38/53/107 40/56/108
f 7/7/109 21/33/110 42/58/111 41/57/112
f 21/33/113 26/39/114 43/59/115 42/58/116
f 26/39/117 25/38/118 44/60/119 43/59/120
f 25/38/121 7/7/122 41/57/123 44/60/124
f 28/41/125 27/40/126 45/62/127 46/61/128
f 27/40/129 15/26/130 47/63/131 45/62/132
f 15/26/133 8/8/134 48/64/135 47/63/136
f 8/8/137 28/41/138 46/61/139 48/64/140
