# This file uses centimeters as units for non-parametric coordinates.

mtllib Gun.mtl
g default
v -0.147949 3.091214 0.564495
v 0.147949 3.091214 0.564495
v -0.147949 3.428989 0.564495
v 0.147949 3.428989 0.564495
v -0.147949 3.428989 -0.564495
v 0.147949 3.428989 -0.564495
v -0.147949 3.091214 -0.564495
v 0.147949 3.091214 -0.564495
v -0.099518 3.146499 0.564495
v 0.099518 3.146499 0.564495
v 0.099518 3.373704 0.564495
v -0.099518 3.373704 0.564495
v -0.099518 3.146499 0.494346
v 0.099518 3.146499 0.494346
v 0.099518 3.373704 0.494346
v -0.099518 3.373704 0.494346
v -0.131465 3.091214 0.231842
v 0.131465 3.091214 0.231842
v 0.131465 3.091214 0.501600
v -0.131465 3.091214 0.501600
v -0.136367 2.993289 0.231842
v 0.136367 2.993289 0.231842
v 0.136367 2.993289 0.501600
v -0.136367 2.993289 0.501600
v -0.131027 3.091214 -0.529675
v 0.131027 3.091214 -0.529675
v 0.116428 3.091214 -0.355686
v -0.116428 3.091214 -0.355686
v -0.086859 2.380569 -0.529675
v 0.086859 2.380569 -0.529675
v 0.077182 2.380569 -0.355686
v -0.077182 2.380569 -0.355686
vt 0.382004 0.561912
vt 0.390037 0.275229
vt 0.545552 0.519812
vt 0.650978 0.717681
vt 0.682230 0.751353
vt 0.685456 0.003906
vt 0.228338 0.012185
vt 0.003906 0.275179
vt 0.643366 0.996036
vt 0.492402 0.996062
vt 0.974337 0.995977
vt 0.823372 0.996004
vt 0.003932 0.926600
vt 0.492399 0.979434
vt 0.974334 0.979350
vt 0.823369 0.979376
vt 0.261216 0.550025
vt 0.265555 0.288521
vt 0.373575 0.292214
vt 0.365389 0.547218
vt 0.269112 0.481232
vt 0.307171 0.344233
vt 0.360153 0.359247
vt 0.320961 0.495152
vt 0.003917 0.772019
vt 0.582076 0.003906
vt 0.588393 0.047881
vt 0.597739 0.238738
vt 0.003906 0.249355
vt 0.003934 0.068874
vt 0.031810 0.101618
vt 0.026770 0.214674
vt 0.911723 0.582074
vt 0.911672 0.849680
vt 0.681703 0.025300
vt 0.687240 0.849637
vt 0.953062 0.003916
vt 0.687291 0.582031
vt 0.682260 0.975785
vt 0.414653 0.975820
vt 0.016742 0.003906
vt 0.003906 0.573258
vt 0.215504 0.003930
vt 0.003906 0.012158
vt 0.414624 0.751388
vt 0.023965 0.553725
vt 0.566932 0.738489
vt 0.566925 0.606727
vt 0.012433 0.569856
vt 0.913612 0.578402
vt 0.646006 0.578418
vt 0.645989 0.310812
vt 0.913595 0.310796
vt 0.647606 0.003906
vt 0.685447 0.271513
vt 0.953053 0.271522
vt 0.595025 0.283007
vt 0.079366 0.539021
vt 0.073942 0.305651
vt 0.016383 0.291669
vt 0.589674 0.317415
vt 0.633653 0.199004
vt 0.631834 0.341772
vt 0.600195 0.511940
vt 0.682354 0.662202
vt 0.312396 0.996094
vt 0.675108 0.200286
vt 0.312393 0.979466
vt 0.183912 0.775604
vt 0.183938 0.926569
vt 0.643363 0.979408
vt 0.003906 0.775635
vn 0.000000 0.000000 1.000000
vn 0.000000 0.000000 1.000000
vn 0.000000 0.000000 1.000000
vn 0.000000 0.000000 1.000000
vn 0.000000 1.000000 0.000000
vn 0.000000 1.000000 0.000000
vn 0.000000 1.000000 0.000000
vn 0.000000 1.000000 0.000000
vn 0.000000 0.000000 -1.000000
vn 0.000000 0.000000 -1.000000
vn 0.000000 0.000000 -1.000000
vn 0.000000 0.000000 -1.000000
vn 0.000000 -1.000000 0.000000
vn 0.000000 -1.000000 0.000000
vn 0.000000 -1.000000 0.000000
vn 0.000000 -1.000000 0.000000
vn 1.000000 0.000000 0.000000
vn 1.000000 0.000000 0.000000
vn 1.000000 0.000000 0.000000
vn 1.000000 0.000000 0.000000
vn -1.000000 0.000000 0.000000
vn -1.000000 0.000000 0.000000
vn -1.000000 0.000000 0.000000
vn -1.000000 0.000000 0.000000
vn 0.000000 0.000000 1.000000
vn 0.000000 0.000000 1.000000
vn 0.000000 0.000000 1.000000
vn 0.000000 0.000000 1.000000
vn 0.000000 0.000000 1.000000
vn 0.000000 0.000000 1.000000
vn 0.000000 0.000000 1.000000
vn 0.000000 0.000000 1.000000
vn 0.000000 0.000000 1.000000
vn 0.000000 0.000000 1.000000
vn 0.000000 0.000000 1.000000
vn 0.000000 0.000000 1.000000
vn -0.000000 0.000000 1.000000
vn -0.000000 0.000000 1.000000
vn -0.000000 0.000000 1.000000
vn -0.000000 0.000000 1.000000
vn 0.000000 1.000000 0.000000
vn 0.000000 1.000000 0.000000
vn 0.000000 1.000000 0.000000
vn 0.000000 1.000000 0.000000
vn -1.000000 0.000000 0.000000
vn -1.000000 0.000000 0.000000
vn -1.000000 0.000000 0.000000
vn -1.000000 0.000000 0.000000
vn 0.000000 -1.000000 0.000000
vn 0.000000 -1.000000 0.000000
vn 0.000000 -1.000000 0.000000
vn 0.000000 -1.000000 0.000000
vn 1.000000 0.000000 0.000000
vn 1.000000 0.000000 0.000000
vn 1.000000 0.000000 0.000000
vn 1.000000 0.000000 0.000000
vn 0.000000 -1.000000 0.000000
vn 0.000000 -1.000000 0.000000
vn 0.000000 -1.000000 0.000000
vn 0.000000 -1.000000 0.000000
vn 0.000000 -1.000000 -0.000000
vn 0.000000 -1.000000 -0.000000
vn 0.000000 -1.000000 -0.000000
vn 0.000000 -1.000000 -0.000000
vn 0.000000 -1.000000 0.000000
vn 0.000000 -1.000000 0.000000
vn 0.000000 -1.000000 0.000000
vn 0.000000 -1.000000 0.000000
vn 0.000000 0.000000 -1.000000
vn 0.000000 0.000000 -1.000000
vn 0.000000 0.000000 -1.000000
vn 0.000000 0.000000 -1.000000
vn 0.998749 0.049994 0.000000
vn 0.998749 0.049994 0.000000
vn 0.998749 0.049994 0.000000
vn 0.998749 0.049994 0.000000
vn 0.000000 0.000000 1.000000
vn 0.000000 0.000000 1.000000
vn 0.000000 0.000000 1.000000
vn 0.000000 0.000000 1.000000
vn -0.998749 0.049994 0.000000
vn -0.998749 0.049994 0.000000
vn -0.998749 0.049994 0.000000
vn -0.998749 0.049994 0.000000
vn 0.000000 -1.000000 0.000000
vn 0.000000 -1.000000 0.000000
vn 0.000000 -1.000000 0.000000
vn 0.000000 -1.000000 0.000000
vn 0.000000 -1.000000 -0.000000
vn 0.000000 -1.000000 -0.000000
vn 0.000000 -1.000000 -0.000000
vn 0.000000 -1.000000 -0.000000
vn 0.000000 -1.000000 0.000000
vn 0.000000 -1.000000 0.000000
vn 0.000000 -1.000000 0.000000
vn 0.000000 -1.000000 0.000000
vn 0.000000 -1.000000 0.000000
vn 0.000000 -1.000000 0.000000
vn 0.000000 -1.000000 0.000000
vn 0.000000 -1.000000 0.000000
vn 0.000000 -1.000000 -0.000000
vn 0.000000 -1.000000 -0.000000
vn 0.000000 -1.000000 -0.000000
vn 0.000000 -1.000000 -0.000000
vn 0.000000 0.000000 -1.000000
vn 0.000000 0.000000 -1.000000
vn 0.000000 0.000000 -1.000000
vn 0.000000 0.000000 -1.000000
vn 0.995870 -0.058447 0.069476
vn 0.995870 -0.058447 0.069476
vn 0.995870 -0.058447 0.069476
vn 0.995870 -0.058447 0.069476
vn 0.000000 0.000000 1.000000
vn 0.000000 0.000000 1.000000
vn 0.000000 0.000000 1.000000
vn 0.000000 0.000000 1.000000
vn -0.995870 -0.058447 0.069476
vn -0.995870 -0.058447 0.069476
vn -0.995870 -0.058447 0.069476
vn -0.995870 -0.058447 0.069476
s off
g pCube1
usemtl initialShadingGroup
f 13/13/1 14/72/2 15/69/3 16/70/4
f 3/34/5 4/36/6 6/38/7 5/33/8
f 5/5/9 6/39/10 8/40/11 7/45/12
f 21/21/13 22/22/14 23/23/15 24/24/16
f 2/56/17 8/55/18 6/6/19 4/37/20
f 7/51/21 1/52/22 3/53/23 5/50/24
f 1/61/25 2/62/26 10/67/27 9/63/28
f 2/62/29 4/54/30 11/35/31 10/67/32
f 4/4/33 3/3/34 12/64/35 11/65/36
f 3/3/37 1/61/38 9/63/39 12/64/40
f 9/9/41 10/10/42 14/14/43 13/71/44
f 10/10/45 11/66/46 15/68/47 14/14/48
f 11/11/49 12/12/50 16/16/51 15/15/52
f 12/12/53 9/9/54 13/71/55 16/16/56
f 8/8/57 2/2/58 19/19/59 18/18/60
f 2/2/61 1/1/62 20/20/63 19/19/64
f 1/1/65 7/49/66 17/17/67 20/20/68
f 17/17/69 18/18/70 22/22/71 21/21/72
f 18/18/73 19/19/74 23/23/75 22/22/76
f 19/19/77 20/20/78 24/24/79 23/23/80
f 20/20/81 17/17/82 21/21/83 24/24/84
f 7/7/85 8/44/86 26/41/87 25/43/88
f 8/8/89 18/18/90 27/59/91 26/60/92
f 18/18/93 17/17/94 28/58/95 27/59/96
f 17/17/97 7/49/98 25/46/99 28/58/100
f 29/29/101 30/30/102 31/31/103 32/32/104
f 25/25/105 26/42/106 30/48/107 29/47/108
f 26/26/109 27/27/110 31/31/111 30/30/112
f 27/27/113 28/28/114 32/32/115 31/31/116
f 28/28/117 25/57/118 29/29/119 32/32/120
