# File produced by Open Asset Import Library (http://www.assimp.sf.net)
# (assimp v3.1.193236683)

mtllib PBR - Metallic Roughness.mtl

# 32 vertex positions
v  -0.420335 2.28463 1.55524
v  -0.420335 -0.129918 1.55524
v  0.420335 -0.129918 1.55524
v  0.420335 2.28463 1.55524
v  -0.420335 2.28463 -1.00479
v  -0.420335 2.28463 -0.491658
v  0.420335 2.28463 -0.491658
v  0.420335 2.28463 -1.00479
v  -0.420335 -0.129918 -1.55524
v  -0.420335 2.28463 -1.55524
v  0.420335 2.28463 -1.55524
v  0.420335 -0.129918 -1.55524
v  -0.420335 -2.28463 -0.491658
v  -0.420335 -2.28463 -1.00479
v  0.420335 -2.28463 -1.00479
v  0.420335 -2.28463 -0.491658
v  0.420335 0.05969 -0.491658
v  0.420335 0.05969 -1.00479
v  -0.420335 0.05969 -1.00479
v  -0.420335 0.05969 -0.491658
v  -0.420335 -0.504155 1.55524
v  0.420335 -0.504155 1.55524
v  -0.420335 -0.504155 -1.55524
v  0.420335 -0.504155 -1.55524
v  -0.420335 -2.28463 1.55524
v  0.420335 -2.28463 1.55524
v  0.420335 -0.504155 -1.00479
v  0.420335 -0.504155 -0.491658
v  -0.420335 -2.28463 -1.55524
v  0.420335 -2.28463 -1.55524
v  -0.420335 -0.504155 -0.491658
v  -0.420335 -0.504155 -1.00479

# 74 UV coordinates
vt 0.003906 0.669659 0
vt 0.176405 0.66965 0
vt 0.176422 0.996085 0
vt 0.003924 0.996094 0
vt 0.392346 0.656916 0
vt 0.446198 0.65692 0
vt 0.446171 0.983355 0
vt 0.39232 0.983351 0
vt 0.664698 0.480652 0
vt 0.664718 0.653151 0
vt 0.338283 0.653188 0
vt 0.338264 0.480689 0
vt 0.668893 0.115527 0
vt 0.668892 0.061676 0
vt 0.995327 0.061674 0
vt 0.995327 0.115526 0
vt 0.330389 0.397252 0
vt 0.330379 0.451103 0
vt 0.171426 0.451075 0
vt 0.171436 0.397224 0
vt 0.226104 0.003906 0
vt 0.282866 0.006571 0
vt 0.275044 0.163668 0
vt 0.222826 0.165581 0
vt 0.203141 0.669649 0
vt 0.203158 0.996083 0
vt 0.664695 0.453916 0
vt 0.338261 0.453953 0
vt 0.330341 0.669642 0
vt 0.330358 0.996076 0
vt 0.131154 0.397217 0
vt 0.131144 0.451068 0
vt 0.003945 0.451045 0
vt 0.003954 0.397194 0
vt 0.664681 0.326717 0
vt 0.338246 0.326754 0
vt 0.220496 0.20516 0
vt 0.2735 0.20387 0
vt 0.277067 0.327679 0
vt 0.22459 0.330619 0
vt 0.661013 0.656938 0
vt 0.660987 0.983372 0
vt 0.330341 0.665918 0
vt 0.157842 0.665888 0
vt 0.131106 0.665883 0
vt 0.003906 0.66586 0
vt 0.668893 0.330342 0
vt 0.995328 0.330341 0
vt 0.003906 0.204581 0
vt 0.01209 0.335703 0
vt 0.004148 0.176716 0
vt 0.012116 0.004113 0
vt 0.668892 0.003907 0
vt 0.995327 0.003906 0
vt 0.131164 0.339448 0
vt 0.003964 0.339426 0
vt 0.1579 0.339453 0
vt 0.330399 0.339484 0
vt 0.334578 0.656911 0
vt 0.334552 0.983346 0
vt 0.34152 0.01352 0
vt 0.331671 0.182931 0
vt 0.328626 0.208991 0
vt 0.336289 0.32289 0
vt 0.803355 0.660507 0
vt 0.803307 0.334073 0
vt 0.857158 0.334065 0
vt 0.857206 0.660499 0
vt 0.66894 0.660527 0
vt 0.668892 0.334092 0
vt 0.709174 0.334086 0
vt 0.709222 0.660521 0
vt 0.763073 0.660513 0
vt 0.763025 0.334078 0

# 6 vertex normals
vn 0 0 1
vn 0 1 0
vn 0 0 -1
vn 0 -1 0
vn 1 0 0
vn -1 0 0

# Mesh 'g pCube1_pCube1' with 64 faces
g g pCube1_pCube1
usemtl initialShadingGroup
f  1/1/1 2/2/1 3/3/1
f  3/3/1 4/4/1 1/1/1
f  5/5/2 6/6/2 7/7/2
f  7/7/2 8/8/2 5/5/2
f  9/9/3 10/10/3 11/11/3
f  11/11/3 12/12/3 9/9/3
f  13/13/4 14/14/4 15/15/4
f  15/15/4 16/16/4 13/13/4
f  8/17/5 7/18/5 17/19/5
f  17/19/5 18/20/5 8/17/5
f  6/21/6 5/22/6 19/23/6
f  19/23/6 20/24/6 6/21/6
f  2/2/1 21/25/1 22/26/1
f  22/26/1 3/3/1 2/2/1
f  23/27/3 9/9/3 12/12/3
f  12/12/3 24/28/3 23/27/3
f  21/25/1 25/29/1 26/30/1
f  26/30/1 22/26/1 21/25/1
f  27/31/5 28/32/5 16/33/5
f  16/33/5 15/34/5 27/31/5
f  29/35/3 23/27/3 24/28/3
f  24/28/3 30/36/3 29/35/3
f  31/37/6 32/38/6 14/39/6
f  14/39/6 13/40/6 31/37/6
f  6/6/2 1/41/2 4/42/2
f  4/42/2 7/7/2 6/6/2
f  4/43/5 3/44/5 17/19/5
f  17/19/5 7/18/5 4/43/5
f  3/44/5 22/45/5 28/32/5
f  28/32/5 17/19/5 3/44/5
f  22/45/5 26/46/5 16/33/5
f  16/33/5 28/32/5 22/45/5
f  25/47/4 13/13/4 16/16/4
f  16/16/4 26/48/4 25/47/4
f  21/49/6 31/37/6 13/40/6
f  13/40/6 25/50/6 21/49/6
f  2/51/6 20/24/6 31/37/6
f  31/37/6 21/49/6 2/51/6
f  1/52/6 6/21/6 20/24/6
f  20/24/6 2/51/6 1/52/6
f  14/14/4 29/53/4 30/54/4
f  30/54/4 15/15/4 14/14/4
f  24/55/5 27/31/5 15/34/5
f  15/34/5 30/56/5 24/55/5
f  12/57/5 18/20/5 27/31/5
f  27/31/5 24/55/5 12/57/5
f  11/58/5 8/17/5 18/20/5
f  18/20/5 12/57/5 11/58/5
f  10/59/2 5/5/2 8/8/2
f  8/8/2 11/60/2 10/59/2
f  10/61/6 9/62/6 19/23/6
f  19/23/6 5/22/6 10/61/6
f  9/62/6 23/63/6 32/38/6
f  32/38/6 19/23/6 9/62/6
f  23/63/6 29/64/6 14/39/6
f  14/39/6 32/38/6 23/63/6
f  31/65/2 28/66/2 27/67/2
f  27/67/2 32/68/2 31/65/2
f  32/69/1 27/70/1 18/71/1
f  18/71/1 19/72/1 32/69/1
f  20/73/3 17/74/3 28/66/3
f  28/66/3 31/65/3 20/73/3
f  19/72/4 18/71/4 17/74/4
f  17/74/4 20/73/4 19/72/4

