# This file uses centimeters as units for non-parametric coordinates.

mtllib Gun3.mtl
g default
v 4.615905 2.506152 1.255664
v 5.544052 2.506152 1.255664
v 4.615905 3.506152 1.255664
v 5.544052 3.506152 1.255664
v 4.615905 3.506152 -1.255663
v 5.544052 3.506152 -1.255663
v 4.615905 2.506152 -1.255663
v 5.544052 2.506152 -1.255663
v 4.820045 3.506152 1.079632
v 5.339912 3.506152 1.079632
v 5.339912 3.506152 -1.069480
v 4.820045 3.506152 -1.069480
v 4.820045 4.149454 1.079632
v 5.339912 4.149454 1.079632
v 5.339912 4.149454 -1.069480
v 4.820045 4.149454 -1.069480
v 4.891445 3.594505 1.242634
v 5.268511 3.594505 1.242634
v 5.268511 4.061100 1.242634
v 4.891445 4.061100 1.242634
v 4.891445 3.594505 -1.232482
v 5.268511 3.594505 -1.232482
v 4.891445 4.061100 -1.232482
v 5.268511 4.061100 -1.232482
v 4.689443 2.585383 2.097334
v 5.470513 2.585383 2.097334
v 5.470513 3.426920 2.097334
v 4.689443 3.426920 2.097334
v 4.689443 2.585383 1.328089
v 5.470513 2.585383 1.328089
v 5.470513 3.426920 1.328089
v 4.689443 3.426920 1.328089
v 4.763792 2.665488 2.816613
v 5.396164 2.665488 2.816613
v 5.396164 3.346815 2.816613
v 4.763792 3.346815 2.816613
v 4.763792 2.665488 2.149137
v 5.396164 2.665488 2.149137
v 5.396164 3.346815 2.149137
v 4.763792 3.346815 2.149137
v 4.696782 3.419013 -1.978453
v 5.463175 3.419013 -1.978453
v 5.463175 2.593290 -1.978453
v 4.696782 2.593290 -1.978453
v 4.798947 2.506152 -1.210874
v 5.361009 2.506152 -1.210874
v 5.361009 2.506152 -0.735128
v 4.798947 2.506152 -0.735128
v 4.700077 1.042903 -1.294560
v 5.459879 1.042903 -1.294560
v 5.459879 1.042903 -0.651441
v 4.700077 1.042903 -0.651441
v 4.826080 2.506152 1.037755
v 5.333877 2.506152 1.037755
v 4.855258 2.506152 -0.051425
v 5.304698 2.506152 -0.051425
v 4.826080 1.117720 1.166551
v 5.333877 1.117720 1.166551
v 4.855258 1.117720 0.675172
v 5.304698 1.117720 0.675172
v 4.868565 2.778372 2.816613
v 5.291391 2.778372 2.816613
v 5.291391 3.233931 2.816613
v 4.868565 3.233931 2.816613
v 4.868565 2.778372 2.671677
v 5.291391 2.778372 2.671677
v 5.291391 3.233931 2.671677
v 4.868565 3.233931 2.671677
vt 0.504983 0.736654
vt 0.311823 0.736629
vt 0.902353 0.003906
vt 0.707394 0.003955
vt 0.531082 0.715108
vt 0.933181 0.592716
vt 0.504958 0.929813
vt 0.311799 0.929788
vt 0.140653 0.003906
vt 0.266935 0.037945
vt 0.170819 0.228123
vt 0.115525 0.219555
vt 0.003906 0.058672
vt 0.133196 0.566917
vt 0.160734 0.317024
vt 0.075410 0.295243
vt 0.140412 0.031383
vt 0.252883 0.060330
vt 0.118853 0.538944
vt 0.033838 0.070906
vt 0.182265 0.229767
vt 0.117032 0.211478
vt 0.062253 0.294300
vt 0.171030 0.320409
vt 0.560186 0.310649
vt 0.003906 0.915760
vt 0.009100 0.753293
vt 0.171650 0.753270
vt 0.741001 0.458783
vt 0.723485 0.182802
vt 0.723507 0.019997
vt 0.886311 0.020019
vt 0.138282 0.717521
vt 0.169001 0.536349
vt 0.291150 0.587178
vt 0.283028 0.697369
vt 0.199716 0.793865
vt 0.020370 0.900806
vt 0.024575 0.769268
vt 0.156180 0.769250
vt 0.956459 0.857030
vt 0.991267 0.575886
vt 0.965153 0.180230
vt 0.220393 0.352817
vt 0.509612 0.837746
vt 0.685519 0.003906
vt 0.349897 0.889756
vt 0.466870 0.889771
vt 0.369645 0.227963
vt 0.372396 0.015067
vt 0.411008 0.050081
vt 0.400323 0.194449
vt 0.162517 0.484776
vt 0.704174 0.290220
vt 0.733244 0.377045
vt 0.737302 0.479291
vt 0.437365 0.490669
vt 0.438174 0.369381
vt 0.467318 0.390845
vt 0.463046 0.468581
vt 0.161707 0.692364
vt 0.178868 0.570287
vt 0.267101 0.600359
vt 0.261173 0.682032
vt 0.173840 0.693798
vt 0.173203 0.584342
vt 0.258958 0.605513
vt 0.251767 0.676603
vt 0.351466 0.564428
vt 0.351463 0.672619
vt 0.516763 0.672623
vt 0.516766 0.564432
vt 0.128166 0.570582
vt 0.181178 0.962922
vt 0.138222 0.773030
vt 0.305437 0.962927
vt 0.030031 0.773030
vt 0.025245 0.521786
vt 0.003983 0.543936
vt 0.333746 0.153660
vt 0.138221 0.938329
vt 0.003906 0.570601
vt 0.365623 0.158641
vt 0.030030 0.938329
vt 0.128192 0.735881
vt 0.003932 0.735901
vt 0.305444 0.797627
vt 0.181184 0.797622
vt 0.991271 0.416390
vt 0.965144 0.020734
vt 0.203570 0.294729
vt 0.739149 0.395829
vt 0.707442 0.198915
vt 0.902402 0.198866
vt 0.739116 0.202669
vt 0.337928 0.521943
vt 0.956481 0.697534
vt 0.589168 0.698277
vt 0.796962 0.857007
vt 0.796985 0.697511
vt 0.589172 0.538781
vt 0.735384 0.500600
vt 0.531087 0.521948
vt 0.379889 0.352840
vt 0.337923 0.715102
vt 0.932275 0.202636
vt 0.396729 0.294757
vt 0.932308 0.395796
vt 0.735417 0.693759
vt 0.933186 0.399557
vt 0.928576 0.693726
vt 0.928543 0.500567
vt 0.907057 0.003906
vt 0.907069 0.197065
vt 0.355561 0.753395
vt 0.361623 0.837170
vt 0.455157 0.837182
vt 0.461240 0.753408
vt 0.466865 0.926363
vt 0.703468 0.185101
vt 0.349893 0.926348
vt 0.690013 0.043800
vt 0.701166 0.227952
vt 0.509596 0.720773
vt 0.792328 0.858284
vt 0.792307 0.700159
vt 0.162541 0.375464
vt 0.709392 0.566081
vt 0.886289 0.182824
vt 0.590249 0.231717
vt 0.427699 0.231763
vt 0.936927 0.193256
vt 0.265148 0.231809
vt 0.161486 0.585249
vt 0.779255 0.023766
vt 0.413105 0.294697
vt 0.996094 0.193261
vt 0.936913 0.355807
vt 0.179530 0.708268
vt 0.170392 0.739991
vt 0.729559 0.156000
vt 0.740982 0.399617
vt 0.996080 0.355812
vt 0.397635 0.310677
vt 0.544710 0.294674
vt 0.727920 0.024406
vt 0.780894 0.155361
vt 0.138259 0.559061
vt 0.160422 0.900786
vt 0.329643 0.720725
vt 0.332369 0.561813
vt 0.200240 0.489455
vt 0.176890 0.915736
vt 0.903533 0.399563
vt 0.427716 0.290930
vt 0.265165 0.290976
vt 0.903552 0.458730
vt 0.590266 0.290884
vn 0.000000 0.000000 1.000000
vn 0.000000 0.000000 1.000000
vn 0.000000 0.000000 1.000000
vn 0.000000 0.000000 1.000000
vn 0.000000 1.000000 0.000000
vn 0.000000 1.000000 0.000000
vn 0.000000 1.000000 0.000000
vn 0.000000 1.000000 0.000000
vn 0.000000 0.000000 -1.000000
vn 0.000000 0.000000 -1.000000
vn 0.000000 0.000000 -1.000000
vn 0.000000 0.000000 -1.000000
vn 0.000000 -1.000000 0.000000
vn 0.000000 -1.000000 0.000000
vn 0.000000 -1.000000 0.000000
vn 0.000000 -1.000000 0.000000
vn 1.000000 0.000000 0.000000
vn 1.000000 0.000000 0.000000
vn 1.000000 0.000000 0.000000
vn 1.000000 0.000000 0.000000
vn -1.000000 0.000000 0.000000
vn -1.000000 0.000000 0.000000
vn -1.000000 0.000000 0.000000
vn -1.000000 0.000000 0.000000
vn 0.000000 1.000000 0.000000
vn 0.000000 1.000000 0.000000
vn 0.000000 1.000000 0.000000
vn 0.000000 1.000000 0.000000
vn 0.000000 1.000000 0.000000
vn 0.000000 1.000000 0.000000
vn 0.000000 1.000000 0.000000
vn 0.000000 1.000000 0.000000
vn 0.000000 1.000000 0.000000
vn 0.000000 1.000000 0.000000
vn 0.000000 1.000000 0.000000
vn 0.000000 1.000000 0.000000
vn 0.000000 1.000000 0.000000
vn 0.000000 1.000000 0.000000
vn 0.000000 1.000000 0.000000
vn 0.000000 1.000000 0.000000
vn 1.000000 0.000000 0.000000
vn 1.000000 0.000000 0.000000
vn 1.000000 0.000000 0.000000
vn 1.000000 0.000000 0.000000
vn -1.000000 0.000000 0.000000
vn -1.000000 0.000000 0.000000
vn -1.000000 0.000000 0.000000
vn -1.000000 0.000000 0.000000
vn 0.000000 -0.879154 0.476538
vn 0.000000 -0.879154 0.476538
vn 0.000000 -0.879154 0.476538
vn 0.000000 -0.879154 0.476538
vn 0.915977 0.000000 0.401231
vn 0.915977 0.000000 0.401231
vn 0.915977 0.000000 0.401231
vn 0.915977 0.000000 0.401231
vn 0.000000 0.879154 0.476537
vn 0.000000 0.879154 0.476537
vn 0.000000 0.879154 0.476537
vn 0.000000 0.879154 0.476537
vn -0.915977 0.000000 0.401231
vn -0.915977 0.000000 0.401231
vn -0.915977 0.000000 0.401231
vn -0.915977 0.000000 0.401231
vn 0.000000 -0.879154 -0.476538
vn 0.000000 -0.879154 -0.476538
vn 0.000000 -0.879154 -0.476538
vn 0.000000 -0.879154 -0.476538
vn -0.915977 0.000000 -0.401231
vn -0.915977 0.000000 -0.401231
vn -0.915977 0.000000 -0.401231
vn -0.915977 0.000000 -0.401231
vn 0.000000 0.879154 -0.476538
vn 0.000000 0.879154 -0.476538
vn 0.000000 0.879154 -0.476538
vn 0.000000 0.879154 -0.476538
vn 0.915977 0.000000 -0.401231
vn 0.915977 0.000000 -0.401231
vn 0.915977 0.000000 -0.401231
vn 0.915977 0.000000 -0.401231
vn 0.000000 1.000000 0.000000
vn 0.000000 1.000000 0.000000
vn 0.000000 1.000000 0.000000
vn 0.000000 1.000000 0.000000
vn 0.000000 -1.000000 0.000000
vn 0.000000 -1.000000 0.000000
vn 0.000000 -1.000000 0.000000
vn 0.000000 -1.000000 0.000000
vn 1.000000 0.000000 0.000000
vn 1.000000 0.000000 0.000000
vn 1.000000 0.000000 0.000000
vn 1.000000 0.000000 0.000000
vn -1.000000 0.000000 0.000000
vn -1.000000 0.000000 0.000000
vn -1.000000 0.000000 0.000000
vn -1.000000 0.000000 0.000000
vn 0.000000 -1.000000 0.000000
vn 0.000000 -1.000000 0.000000
vn 0.000000 -1.000000 0.000000
vn 0.000000 -1.000000 0.000000
vn 1.000000 0.000000 0.000000
vn 1.000000 0.000000 0.000000
vn 1.000000 0.000000 0.000000
vn 1.000000 0.000000 0.000000
vn 0.000000 1.000000 0.000000
vn 0.000000 1.000000 0.000000
vn 0.000000 1.000000 0.000000
vn 0.000000 1.000000 0.000000
vn -1.000000 0.000000 0.000000
vn -1.000000 0.000000 0.000000
vn -1.000000 0.000000 0.000000
vn -1.000000 0.000000 0.000000
vn 0.000000 -0.674694 0.738098
vn 0.000000 -0.674694 0.738098
vn 0.000000 -0.674694 0.738098
vn 0.000000 -0.674694 0.738098
vn 0.701693 0.000000 0.712479
vn 0.701693 0.000000 0.712479
vn 0.701693 0.000000 0.712479
vn 0.701693 0.000000 0.712479
vn 0.000000 0.674694 0.738098
vn 0.000000 0.674694 0.738098
vn 0.000000 0.674694 0.738098
vn 0.000000 0.674694 0.738098
vn -0.701693 0.000000 0.712479
vn -0.701693 0.000000 0.712479
vn -0.701693 0.000000 0.712479
vn -0.701693 0.000000 0.712479
vn 0.000000 -1.000000 0.000000
vn 0.000000 -1.000000 0.000000
vn 0.000000 -1.000000 0.000000
vn 0.000000 -1.000000 0.000000
vn 1.000000 0.000000 0.000000
vn 1.000000 0.000000 0.000000
vn 1.000000 0.000000 0.000000
vn 1.000000 0.000000 0.000000
vn 0.000000 1.000000 0.000000
vn 0.000000 1.000000 0.000000
vn 0.000000 1.000000 0.000000
vn 0.000000 1.000000 0.000000
vn -1.000000 0.000000 0.000000
vn -1.000000 0.000000 0.000000
vn -1.000000 0.000000 0.000000
vn -1.000000 0.000000 0.000000
vn 0.000000 -0.543030 0.839714
vn 0.000000 -0.543030 0.839714
vn 0.000000 -0.543030 0.839714
vn 0.000000 -0.543030 0.839714
vn 0.571670 0.000000 0.820484
vn 0.571670 0.000000 0.820484
vn 0.571670 0.000000 0.820484
vn 0.571670 0.000000 0.820484
vn 0.000000 0.543030 0.839714
vn 0.000000 0.543030 0.839714
vn 0.000000 0.543030 0.839714
vn 0.000000 0.543030 0.839714
vn -0.571670 0.000000 0.820484
vn -0.571670 0.000000 0.820484
vn -0.571670 0.000000 0.820484
vn -0.571670 0.000000 0.820484
vn 0.000000 0.992811 -0.119691
vn 0.000000 0.992811 -0.119691
vn 0.000000 0.992811 -0.119691
vn 0.000000 0.992811 -0.119691
vn 0.993798 0.000000 -0.111202
vn 0.993798 0.000000 -0.111202
vn 0.993798 0.000000 -0.111202
vn 0.993798 0.000000 -0.111202
vn 0.000000 -0.992811 -0.119691
vn 0.000000 -0.992811 -0.119691
vn 0.000000 -0.992811 -0.119691
vn 0.000000 -0.992811 -0.119691
vn -0.993798 0.000000 -0.111202
vn -0.993798 0.000000 -0.111202
vn -0.993798 0.000000 -0.111202
vn -0.993798 0.000000 -0.111202
vn 0.000000 -1.000000 0.000000
vn 0.000000 -1.000000 0.000000
vn 0.000000 -1.000000 0.000000
vn 0.000000 -1.000000 0.000000
vn 0.000000 -1.000000 0.000000
vn 0.000000 -1.000000 0.000000
vn 0.000000 -1.000000 0.000000
vn 0.000000 -1.000000 0.000000
vn 0.000000 -1.000000 -0.000000
vn 0.000000 -1.000000 -0.000000
vn 0.000000 -1.000000 -0.000000
vn 0.000000 -1.000000 -0.000000
vn 0.000000 -1.000000 0.000000
vn 0.000000 -1.000000 0.000000
vn 0.000000 -1.000000 0.000000
vn 0.000000 -1.000000 0.000000
vn 0.000000 0.057099 -0.998369
vn 0.000000 0.057099 -0.998369
vn 0.000000 0.057099 -0.998369
vn 0.000000 0.057099 -0.998369
vn 0.997725 0.067415 0.000000
vn 0.997725 0.067415 0.000000
vn 0.997725 0.067415 0.000000
vn 0.997725 0.067415 0.000000
vn 0.000000 0.057099 0.998369
vn 0.000000 0.057099 0.998369
vn 0.000000 0.057099 0.998369
vn 0.000000 0.057099 0.998369
vn -0.997725 0.067415 0.000000
vn -0.997725 0.067415 0.000000
vn -0.997725 0.067415 0.000000
vn -0.997725 0.067415 0.000000
vn 0.000000 -1.000000 0.000000
vn 0.000000 -1.000000 0.000000
vn 0.000000 -1.000000 0.000000
vn 0.000000 -1.000000 0.000000
vn 0.000000 -1.000000 0.000000
vn 0.000000 -1.000000 0.000000
vn 0.000000 -1.000000 0.000000
vn 0.000000 -1.000000 0.000000
vn 0.000000 -1.000000 0.000000
vn 0.000000 -1.000000 0.000000
vn 0.000000 -1.000000 0.000000
vn 0.000000 -1.000000 0.000000
vn 0.000000 -1.000000 0.000000
vn 0.000000 -1.000000 0.000000
vn 0.000000 -1.000000 0.000000
vn 0.000000 -1.000000 0.000000
vn 0.000000 0.092367 0.995725
vn 0.000000 0.092367 0.995725
vn 0.000000 0.092367 0.995725
vn 0.000000 0.092367 0.995725
vn -0.999255 -0.011365 -0.036894
vn -0.999255 -0.011365 -0.036894
vn -0.999255 -0.011365 -0.036894
vn -0.999255 -0.011365 -0.036894
vn 0.000000 -0.463668 -0.886009
vn 0.000000 -0.463668 -0.886009
vn 0.000000 -0.463668 -0.886009
vn 0.000000 -0.463668 -0.886009
vn 0.999255 -0.011365 -0.036894
vn 0.999255 -0.011365 -0.036894
vn 0.999255 -0.011365 -0.036894
vn 0.999255 -0.011365 -0.036894
vn 0.000000 0.000000 1.000000
vn 0.000000 0.000000 1.000000
vn 0.000000 0.000000 1.000000
vn 0.000000 0.000000 1.000000
vn -0.000001 0.000000 1.000000
vn -0.000001 0.000000 1.000000
vn -0.000001 0.000000 1.000000
vn -0.000001 0.000000 1.000000
vn 0.000000 0.000000 1.000000
vn 0.000000 0.000000 1.000000
vn 0.000000 0.000000 1.000000
vn 0.000000 0.000000 1.000000
vn 0.000001 0.000000 1.000000
vn 0.000001 0.000000 1.000000
vn 0.000001 0.000000 1.000000
vn 0.000001 0.000000 1.000000
vn 0.000000 1.000000 0.000000
vn 0.000000 1.000000 0.000000
vn 0.000000 1.000000 0.000000
vn 0.000000 1.000000 0.000000
vn -1.000000 0.000000 0.000000
vn -1.000000 0.000000 0.000000
vn -1.000000 0.000000 0.000000
vn -1.000000 0.000000 0.000000
vn 0.000000 -1.000000 0.000000
vn 0.000000 -1.000000 0.000000
vn 0.000000 -1.000000 0.000000
vn 0.000000 -1.000000 0.000000
vn 1.000000 0.000000 0.000000
vn 1.000000 0.000000 0.000000
vn 1.000000 0.000000 0.000000
vn 1.000000 0.000000 0.000000
s off
g pCube3
usemtl initialShadingGroup
f 65/65/1 66/66/2 67/67/3 68/68/4
f 13/77/5 14/75/6 15/81/7 16/84/8
f 41/41/9 42/99/10 43/100/11 44/97/12
f 49/49/13 50/50/14 51/51/15 52/52/16
f 2/112/17 8/111/18 6/109/19 4/102/20
f 7/108/21 1/92/22 3/95/23 5/106/24
f 3/105/25 4/96/26 10/69/27 9/70/28
f 4/96/29 6/103/30 11/72/31 10/69/32
f 6/103/33 5/5/34 12/71/35 11/72/36
f 5/5/37 3/105/38 9/70/39 12/71/40
f 10/73/41 11/85/42 15/86/43 14/82/44
f 12/87/45 9/76/46 13/74/47 16/88/48
f 9/9/49 10/10/50 18/18/51 17/17/52
f 10/10/53 14/83/54 19/80/55 18/18/56
f 14/14/57 13/79/58 20/78/59 19/19/60
f 13/13/61 9/9/62 17/17/63 20/20/64
f 11/11/65 12/12/66 21/22/67 22/21/68
f 12/12/69 16/16/70 23/23/71 21/22/72
f 16/16/73 15/15/74 24/24/75 23/23/76
f 15/15/77 11/11/78 22/21/79 24/24/80
f 17/17/81 18/18/82 22/21/83 21/22/84
f 19/19/85 20/78/86 23/23/87 24/24/88
f 20/20/89 17/17/90 21/22/91 23/23/92
f 18/18/93 19/80/94 24/24/95 22/21/96
f 29/138/97 30/132/98 26/137/99 25/143/100
f 30/133/101 31/131/102 27/155/103 26/156/104
f 31/131/105 32/130/106 28/158/107 27/155/108
f 32/157/109 29/29/110 25/142/111 28/154/112
f 1/94/113 2/93/114 30/30/115 29/129/116
f 2/93/117 4/4/118 31/31/119 30/30/120
f 4/4/121 3/3/122 32/32/123 31/31/124
f 3/3/125 1/94/126 29/129/127 32/32/128
f 37/141/129 38/146/130 34/135/131 33/147/132
f 38/152/133 39/151/134 35/35/135 34/34/136
f 39/151/137 40/150/138 36/36/139 35/35/140
f 40/150/141 37/37/142 33/140/143 36/36/144
f 25/25/145 26/144/146 38/136/147 37/145/148
f 26/26/149 27/27/150 39/39/151 38/38/152
f 27/27/153 28/28/154 40/40/155 39/39/156
f 28/28/157 25/153/158 37/149/159 40/40/160
f 5/5/161 6/103/162 42/101/163 41/98/164
f 6/6/165 8/110/166 43/89/167 42/42/168
f 8/114/169 7/113/170 44/90/171 43/43/172
f 7/91/173 5/107/174 41/104/175 44/44/176
f 7/7/177 8/8/178 46/121/179 45/119/180
f 8/8/181 2/2/182 47/47/183 46/121/184
f 58/57/185 57/58/186 59/59/187 60/60/188
f 1/1/189 7/7/190 45/119/191 48/48/192
f 45/45/193 46/124/194 50/126/195 49/125/196
f 46/46/197 47/122/198 51/51/199 50/50/200
f 47/122/201 48/120/202 52/52/203 51/51/204
f 48/120/205 45/123/206 49/49/207 52/52/208
f 2/2/209 1/1/210 53/118/211 54/115/212
f 1/1/213 48/48/214 55/117/215 53/118/216
f 48/48/217 47/47/218 56/116/219 55/117/220
f 47/47/221 2/2/222 54/115/223 56/116/224
f 54/53/225 53/127/226 57/58/227 58/57/228
f 53/54/229 55/55/230 59/59/231 57/58/232
f 55/55/233 56/56/234 60/60/235 59/59/236
f 56/56/237 54/128/238 58/57/239 60/60/240
f 33/33/241 34/148/242 62/134/243 61/61/244
f 34/34/245 35/35/246 63/63/247 62/62/248
f 35/35/249 36/36/250 64/64/251 63/63/252
f 36/36/253 33/140/254 61/139/255 64/64/256
f 61/61/257 62/134/258 66/66/259 65/65/260
f 62/62/261 63/63/262 67/67/263 66/66/264
f 63/63/265 64/64/266 68/68/267 67/67/268
f 64/64/269 61/139/270 65/65/271 68/68/272
